<svg width="360" height="448" viewBox="0 0 360 448" fill="none" xmlns="http://www.w3.org/2000/svg">
<g clip-path="url(#clip0)">
<rect width="360" height="448" fill="white"/>
<rect x="-1" width="361" height="362" fill="#C89D8E"/>
<path d="M179.479 360.327C277.679 360.327 357.305 281.021 357.305 183.169C357.305 85.316 277.679 6.01038 179.479 6.01038C81.2792 6.01038 1.65283 85.316 1.65283 183.169C1.65283 281.021 81.2792 360.327 179.479 360.327Z" fill="#C4C4C4" stroke="black" stroke-width="6"/>
<path d="M49.4806 299.618C18.588 265.169 2.65917 219.871 5.19819 173.69C7.73722 127.508 28.5361 84.2259 63.0194 53.3642C97.5027 22.5025 142.846 6.58956 189.073 9.12605C235.301 11.6625 278.627 32.4407 309.519 66.8895L179.5 183.254L49.4806 299.618Z" fill="#FFC066"/>
<path d="M49.4806 299.618C80.3731 334.067 123.699 354.845 169.927 357.382C216.154 359.918 261.497 344.005 295.981 313.143C330.464 282.282 351.263 238.999 353.802 192.818C356.341 146.636 340.412 101.338 309.519 66.8896L179.5 183.254L49.4806 299.618Z" fill="#FD6564"/>
<line y1="-3" x2="352.41" y2="-3" transform="matrix(0.745884 -0.666075 0.666816 0.745223 48.2126 303.234)" stroke="black" stroke-width="6"/>
<line x1="-1.99818" y1="362" x2="361.258" y2="362.221" stroke="black" stroke-width="6"/>
<rect x="-5" y="365" width="365" height="91" fill="#00B2A2"/>
<path d="M18.6458 385.614L19.8738 384.035L19.8738 384.035L18.6458 385.614ZM43.3829 385.614L44.7866 387.038L44.8122 387.013L44.8368 386.987L43.3829 385.614ZM65.5736 385.614L67.1342 384.363L67.1342 384.363L65.5736 385.614ZM111.444 385.614L110.216 387.192L110.216 387.192L111.444 385.614ZM136.182 385.614L137.585 387.038L137.611 387.013L137.636 386.987L136.182 385.614ZM158.372 385.614L159.933 384.363L159.933 384.363L158.372 385.614ZM203.447 385.614L204.675 384.035L204.675 384.035L203.447 385.614ZM228.184 385.614L229.587 387.038L229.613 387.013L229.638 386.987L228.184 385.614ZM250.374 385.614L251.935 384.363L251.935 384.363L250.374 385.614ZM296.245 385.614L295.017 387.192L295.017 387.192L296.245 385.614ZM320.982 385.614L322.386 387.038L322.412 387.013L322.436 386.987L320.982 385.614ZM18.6458 408.5L19.8738 406.921L19.8738 406.921L18.6458 408.5ZM43.3829 408.5L44.7866 409.925L44.8122 409.899L44.8368 409.873L43.3829 408.5ZM65.5736 408.5L67.1342 407.249L67.1342 407.249L65.5736 408.5ZM111.444 408.5L110.216 410.079L110.216 410.079L111.444 408.5ZM136.182 408.5L137.585 409.925L137.611 409.899L137.636 409.873L136.182 408.5ZM158.372 408.5L159.933 407.249L159.933 407.249L158.372 408.5ZM203.447 408.5L204.675 406.921L204.675 406.921L203.447 408.5ZM228.184 408.5L229.587 409.925L229.613 409.899L229.638 409.873L228.184 408.5ZM250.374 408.5L251.935 407.249L251.935 407.249L250.374 408.5ZM296.245 408.5L295.017 410.079L295.017 410.079L296.245 408.5ZM320.982 408.5L322.386 409.925L322.412 409.899L322.436 409.873L320.982 408.5ZM18.6458 431.386L19.8738 429.808L19.8738 429.808L18.6458 431.386ZM43.3829 431.386L44.7866 432.811L44.8122 432.786L44.8368 432.76L43.3829 431.386ZM65.5736 431.386L67.1342 430.136L67.1342 430.136L65.5736 431.386ZM111.444 431.386L110.216 432.965L110.216 432.965L111.444 431.386ZM136.182 431.386L137.585 432.811L137.611 432.786L137.636 432.76L136.182 431.386ZM158.372 431.386L159.933 430.136L159.933 430.136L158.372 431.386ZM203.447 431.386L204.675 429.808L204.675 429.808L203.447 431.386ZM228.184 431.386L229.587 432.811L229.613 432.786L229.638 432.76L228.184 431.386ZM250.374 431.386L251.935 430.136L251.935 430.136L250.374 431.386ZM296.245 431.386L295.017 432.965L295.017 432.965L296.245 431.386ZM320.982 431.386L322.386 432.811L322.412 432.786L322.436 432.76L320.982 431.386ZM-3.52329 386.962C-2.15976 385.47 0.585768 383.572 4.20459 383.021C7.74238 382.482 12.2893 383.203 17.4178 387.192L19.8738 384.035C13.9433 379.422 8.30436 378.35 3.6025 379.066C-1.01832 379.77 -4.56621 382.173 -6.47671 384.265L-3.52329 386.962ZM17.4178 387.192C23.3704 391.823 29.1903 392.869 34.0829 392.163C38.8967 391.469 42.6972 389.097 44.7866 387.038L41.9792 384.189C40.4308 385.715 37.3922 387.644 33.5116 388.204C29.7099 388.753 24.9801 388.007 19.8738 384.035L17.4178 387.192ZM44.8368 386.987C46.6469 385.071 49.7985 382.821 53.285 382.179C56.5817 381.573 60.3935 382.349 64.013 386.864L67.1342 384.363C62.6049 378.712 57.3222 377.369 52.5611 378.246C47.9899 379.087 44.1205 381.92 41.929 384.24L44.8368 386.987ZM64.013 386.864C68.5329 392.504 73.7524 393.863 78.4563 392.981C82.9637 392.135 86.7456 389.289 88.8752 386.965L85.9256 384.263C84.1749 386.174 81.1177 388.412 77.719 389.049C74.5167 389.65 70.7629 388.89 67.1342 384.363L64.013 386.864ZM89.2754 386.962C90.6389 385.47 93.3845 383.572 97.0033 383.021C100.541 382.482 105.088 383.203 110.216 387.192L112.672 384.035C106.742 379.422 101.103 378.35 96.4012 379.066C91.7804 379.77 88.2325 382.173 86.322 384.265L89.2754 386.962ZM110.216 387.192C116.169 391.823 121.989 392.869 126.882 392.163C131.695 391.469 135.496 389.097 137.585 387.038L134.778 384.189C133.229 385.715 130.191 387.644 126.31 388.204C122.509 388.753 117.779 388.007 112.672 384.035L110.216 387.192ZM137.636 386.987C139.446 385.071 142.597 382.821 146.084 382.179C149.38 381.573 153.192 382.349 156.812 386.864L159.933 384.363C155.404 378.712 150.121 377.369 145.36 378.246C140.789 379.087 136.919 381.92 134.728 384.24L137.636 386.987ZM156.812 386.864C161.332 392.504 166.551 393.863 171.255 392.981C175.762 392.135 179.544 389.289 181.674 386.965L178.724 384.263C176.974 386.174 173.916 388.412 170.518 389.049C167.315 389.65 163.562 388.89 159.933 384.363L156.812 386.864ZM181.278 386.962C182.641 385.47 185.387 383.572 189.005 383.021C192.543 382.482 197.09 383.203 202.219 387.192L204.675 384.035C198.744 379.422 193.105 378.35 188.403 379.066C183.783 379.77 180.235 382.173 178.324 384.265L181.278 386.962ZM202.219 387.192C208.171 391.823 213.991 392.869 218.884 392.163C223.698 391.469 227.498 389.097 229.587 387.038L226.78 384.189C225.232 385.715 222.193 387.644 218.312 388.204C214.511 388.753 209.781 388.007 204.675 384.035L202.219 387.192ZM229.638 386.987C231.448 385.071 234.599 382.821 238.086 382.179C241.383 381.573 245.194 382.349 248.814 386.864L251.935 384.363C247.406 378.712 242.123 377.369 237.362 378.246C232.791 379.087 228.921 381.92 226.73 384.24L229.638 386.987ZM248.814 386.864C253.334 392.504 258.553 393.863 263.257 392.981C267.765 392.135 271.546 389.289 273.676 386.965L270.726 384.263C268.976 386.174 265.919 388.412 262.52 389.049C259.318 389.65 255.564 388.89 251.935 384.363L248.814 386.864ZM274.076 386.962C275.44 385.47 278.185 383.572 281.804 383.021C285.342 382.482 289.889 383.203 295.017 387.192L297.473 384.035C291.543 379.422 285.904 378.35 281.202 379.066C276.581 379.77 273.033 382.173 271.123 384.265L274.076 386.962ZM295.017 387.192C300.97 391.823 306.79 392.869 311.682 392.163C316.496 391.469 320.297 389.097 322.386 387.038L319.579 384.189C318.03 385.715 314.992 387.644 311.111 388.204C307.309 388.753 302.58 388.007 297.473 384.035L295.017 387.192ZM322.436 386.987C324.246 385.071 327.398 382.821 330.885 382.179C334.181 381.573 337.993 382.349 341.613 386.864L344.734 384.363C340.204 378.712 334.922 377.369 330.161 378.246C325.589 379.087 321.72 381.92 319.529 384.24L322.436 386.987ZM341.613 386.864C346.132 392.504 351.352 393.863 356.056 392.981C360.563 392.135 364.345 389.289 366.475 386.965L363.525 384.263C361.774 386.174 358.717 388.412 355.319 389.049C352.116 389.65 348.362 388.89 344.734 384.363L341.613 386.864ZM-3.52329 409.849C-2.15976 408.356 0.585768 406.458 4.20459 405.907C7.74238 405.368 12.2893 406.089 17.4178 410.079L19.8738 406.921C13.9433 402.308 8.30436 401.237 3.6025 401.953C-1.01832 402.656 -4.56621 405.06 -6.47671 407.151L-3.52329 409.849ZM17.4178 410.079C23.3704 414.709 29.1903 415.756 34.0829 415.05C38.8967 414.355 42.6972 411.983 44.7866 409.925L41.9792 407.075C40.4308 408.601 37.3922 410.531 33.5116 411.091C29.7099 411.639 24.9801 410.894 19.8738 406.921L17.4178 410.079ZM44.8368 409.873C46.6469 407.957 49.7985 405.707 53.285 405.066C56.5817 404.459 60.3935 405.235 64.013 409.751L67.1342 407.249C62.6049 401.598 57.3222 400.256 52.5611 401.132C47.9899 401.973 44.1205 404.807 41.929 407.127L44.8368 409.873ZM64.013 409.751C68.5329 415.39 73.7524 416.749 78.4563 415.867C82.9637 415.022 86.7456 412.176 88.8752 409.851L85.9256 407.149C84.1749 409.06 81.1177 411.298 77.719 411.935C74.5167 412.536 70.7629 411.777 67.1342 407.249L64.013 409.751ZM89.2754 409.849C90.6389 408.356 93.3845 406.458 97.0033 405.907C100.541 405.368 105.088 406.089 110.216 410.079L112.672 406.921C106.742 402.308 101.103 401.237 96.4012 401.953C91.7804 402.656 88.2325 405.06 86.322 407.151L89.2754 409.849ZM110.216 410.079C116.169 414.709 121.989 415.756 126.882 415.05C131.695 414.355 135.496 411.983 137.585 409.925L134.778 407.075C133.229 408.601 130.191 410.531 126.31 411.091C122.509 411.639 117.779 410.894 112.672 406.921L110.216 410.079ZM137.636 409.873C139.446 407.957 142.597 405.707 146.084 405.066C149.38 404.459 153.192 405.235 156.812 409.751L159.933 407.249C155.404 401.598 150.121 400.256 145.36 401.132C140.789 401.973 136.919 404.807 134.728 407.127L137.636 409.873ZM156.812 409.751C161.332 415.39 166.551 416.749 171.255 415.867C175.762 415.022 179.544 412.176 181.674 409.851L178.724 407.149C176.974 409.06 173.916 411.298 170.518 411.935C167.315 412.536 163.562 411.777 159.933 407.249L156.812 409.751ZM181.278 409.849C182.641 408.356 185.387 406.458 189.005 405.907C192.543 405.368 197.09 406.089 202.219 410.079L204.675 406.921C198.744 402.308 193.105 401.237 188.403 401.953C183.783 402.656 180.235 405.06 178.324 407.151L181.278 409.849ZM202.219 410.079C208.171 414.709 213.991 415.756 218.884 415.05C223.698 414.355 227.498 411.983 229.587 409.925L226.78 407.075C225.232 408.601 222.193 410.531 218.312 411.091C214.511 411.639 209.781 410.894 204.675 406.921L202.219 410.079ZM229.638 409.873C231.448 407.957 234.599 405.707 238.086 405.066C241.383 404.459 245.194 405.235 248.814 409.751L251.935 407.249C247.406 401.598 242.123 400.256 237.362 401.132C232.791 401.973 228.921 404.807 226.73 407.127L229.638 409.873ZM248.814 409.751C253.334 415.39 258.553 416.749 263.257 415.867C267.765 415.022 271.546 412.176 273.676 409.851L270.726 407.149C268.976 409.06 265.919 411.298 262.52 411.935C259.318 412.536 255.564 411.777 251.935 407.249L248.814 409.751ZM274.076 409.849C275.44 408.356 278.185 406.458 281.804 405.907C285.342 405.368 289.889 406.089 295.017 410.079L297.473 406.921C291.543 402.308 285.904 401.237 281.202 401.953C276.581 402.656 273.033 405.06 271.123 407.151L274.076 409.849ZM295.017 410.079C300.97 414.709 306.79 415.756 311.682 415.05C316.496 414.355 320.297 411.983 322.386 409.925L319.579 407.075C318.03 408.601 314.992 410.531 311.111 411.091C307.309 411.639 302.58 410.894 297.473 406.921L295.017 410.079ZM322.436 409.873C324.246 407.957 327.398 405.707 330.885 405.066C334.181 404.459 337.993 405.235 341.613 409.751L344.734 407.249C340.204 401.598 334.922 400.256 330.161 401.132C325.589 401.973 321.72 404.807 319.529 407.127L322.436 409.873ZM341.613 409.751C346.132 415.39 351.352 416.749 356.056 415.867C360.563 415.022 364.345 412.176 366.475 409.851L363.525 407.149C361.774 409.06 358.717 411.298 355.319 411.935C352.116 412.536 348.362 411.777 344.734 407.249L341.613 409.751ZM-3.52329 432.735C-2.15976 431.242 0.585768 429.344 4.20459 428.793C7.74238 428.255 12.2893 428.976 17.4178 432.965L19.8738 429.808C13.9433 425.194 8.30436 424.123 3.6025 424.839C-1.01832 425.543 -4.56621 427.946 -6.47671 430.038L-3.52329 432.735ZM17.4178 432.965C23.3704 437.596 29.1903 438.642 34.0829 437.936C38.8967 437.241 42.6972 434.87 44.7866 432.811L41.9792 429.962C40.4308 431.487 37.3922 433.417 33.5116 433.977C29.7099 434.526 24.9801 433.78 19.8738 429.808L17.4178 432.965ZM44.8368 432.76C46.6469 430.844 49.7985 428.594 53.285 427.952C56.5817 427.346 60.3935 428.121 64.013 432.637L67.1342 430.136C62.6049 424.485 57.3222 423.142 52.5611 424.018C47.9899 424.859 44.1205 427.693 41.929 430.013L44.8368 432.76ZM64.013 432.637C68.5329 438.277 73.7524 439.635 78.4563 438.753C82.9637 437.908 86.7456 435.062 88.8752 432.737L85.9256 430.035C84.1749 431.947 81.1177 434.184 77.719 434.822C74.5167 435.422 70.7629 434.663 67.1342 430.136L64.013 432.637ZM89.2754 432.735C90.6389 431.242 93.3845 429.344 97.0033 428.793C100.541 428.255 105.088 428.976 110.216 432.965L112.672 429.808C106.742 425.194 101.103 424.123 96.4012 424.839C91.7804 425.543 88.2325 427.946 86.322 430.038L89.2754 432.735ZM110.216 432.965C116.169 437.596 121.989 438.642 126.882 437.936C131.695 437.241 135.496 434.87 137.585 432.811L134.778 429.962C133.229 431.487 130.191 433.417 126.31 433.977C122.509 434.526 117.779 433.78 112.672 429.808L110.216 432.965ZM137.636 432.76C139.446 430.844 142.597 428.594 146.084 427.952C149.38 427.346 153.192 428.121 156.812 432.637L159.933 430.136C155.404 424.485 150.121 423.142 145.36 424.018C140.789 424.859 136.919 427.693 134.728 430.013L137.636 432.76ZM156.812 432.637C161.332 438.277 166.551 439.635 171.255 438.753C175.762 437.908 179.544 435.062 181.674 432.737L178.724 430.035C176.974 431.947 173.916 434.184 170.518 434.822C167.315 435.422 163.562 434.663 159.933 430.136L156.812 432.637ZM181.278 432.735C182.641 431.242 185.387 429.344 189.005 428.793C192.543 428.255 197.09 428.976 202.219 432.965L204.675 429.808C198.744 425.194 193.105 424.123 188.403 424.839C183.783 425.543 180.235 427.946 178.324 430.038L181.278 432.735ZM202.219 432.965C208.171 437.596 213.991 438.642 218.884 437.936C223.698 437.241 227.498 434.87 229.587 432.811L226.78 429.962C225.232 431.487 222.193 433.417 218.312 433.977C214.511 434.526 209.781 433.78 204.675 429.808L202.219 432.965ZM229.638 432.76C231.448 430.844 234.599 428.594 238.086 427.952C241.383 427.346 245.194 428.121 248.814 432.637L251.935 430.136C247.406 424.485 242.123 423.142 237.362 424.018C232.791 424.859 228.921 427.693 226.73 430.013L229.638 432.76ZM248.814 432.637C253.334 438.277 258.553 439.635 263.257 438.753C267.765 437.908 271.546 435.062 273.676 432.737L270.726 430.035C268.976 431.947 265.919 434.184 262.52 434.822C259.318 435.422 255.564 434.663 251.935 430.136L248.814 432.637ZM274.076 432.735C275.44 431.242 278.185 429.344 281.804 428.793C285.342 428.255 289.889 428.976 295.017 432.965L297.473 429.808C291.543 425.194 285.904 424.123 281.202 424.839C276.581 425.543 273.033 427.946 271.123 430.038L274.076 432.735ZM295.017 432.965C300.97 437.596 306.79 438.642 311.682 437.936C316.496 437.241 320.297 434.87 322.386 432.811L319.579 429.962C318.03 431.487 314.992 433.417 311.111 433.977C307.309 434.526 302.58 433.78 297.473 429.808L295.017 432.965ZM322.436 432.76C324.246 430.844 327.398 428.594 330.885 427.952C334.181 427.346 337.993 428.121 341.613 432.637L344.734 430.136C340.204 424.485 334.922 423.142 330.161 424.018C325.589 424.859 321.72 427.693 319.529 430.013L322.436 432.76ZM341.613 432.637C346.132 438.277 351.352 439.635 356.056 438.753C360.563 437.908 364.345 435.062 366.475 432.737L363.525 430.035C361.774 431.947 358.717 434.184 355.319 434.822C352.116 435.422 348.362 434.663 344.734 430.136L341.613 432.637Z" fill="black"/>
</g>
<defs>
<clipPath id="clip0">
<rect width="360" height="448" fill="white"/>
</clipPath>
</defs>
</svg>
